HIERARCHY
ROOT Hips
{
	OFFSET 0.000000 0.000000 0.000000
	CHANNELS 6 Xposition Yposition Zposition Yrotation Xrotation Zrotation
	JOINT Chest
	{
		OFFSET 0.000000 3.947999 8.484001
		CHANNELS 3 Yrotation Xrotation Zrotation
		JOINT Chest2
		{
			OFFSET -0.242000 -1.009004 23.992001
			CHANNELS 3 Yrotation Xrotation Zrotation
			JOINT LeftCollar
			{
				OFFSET 6.798000 -2.924003 16.166000
				CHANNELS 3 Yrotation Xrotation Zrotation
				JOINT LeftShoulder
				{
					OFFSET 13.459999 0.000000 0.000000
					CHANNELS 3 Yrotation Xrotation Zrotation
					JOINT LeftElbow
					{
						OFFSET 26.099998 0.000000 0.000000
						CHANNELS 3 Yrotation Xrotation Zrotation
						JOINT LeftWrist
						{
							OFFSET 28.739998 0.000000 0.000000
							CHANNELS 3 Yrotation Xrotation Zrotation
							End Site
							{
								OFFSET 0.005997 0.000002 -10.922001
							}
						}
					}
				}
			}
			JOINT Neck
			{
				OFFSET -0.242000 -1.009004 23.992001
				CHANNELS 3 Yrotation Xrotation Zrotation
				JOINT Head
				{
					OFFSET 0.000000 -0.000002 10.451996
					CHANNELS 3 Yrotation Xrotation Zrotation
					End Site
					{
						OFFSET -0.012000 0.004997 20.533997
					}
				}
			}
			JOINT RightCollar
			{
				OFFSET -7.282000 -2.924003 16.166000
				CHANNELS 3 Yrotation Xrotation Zrotation
				JOINT RightShoulder
				{
					OFFSET -13.460001 0.000000 0.000000
					CHANNELS 3 Yrotation Xrotation Zrotation
					JOINT RightElbow
					{
						OFFSET -26.099998 0.000000 0.000000
						CHANNELS 3 Yrotation Xrotation Zrotation
						JOINT RightWrist
						{
							OFFSET -28.739998 0.000000 0.000000
							CHANNELS 3 Yrotation Xrotation Zrotation
							End Site
							{
								OFFSET 0.005997 0.000002 -10.922001
							}
						}
					}
				}
			}
		}
	}
	JOINT LeftHip
	{
		OFFSET 8.100000 0.000000 0.000000
		CHANNELS 3 Yrotation Xrotation Zrotation
		JOINT LeftKnee
		{
			OFFSET 0.000000 0.000007 -43.200001
			CHANNELS 3 Yrotation Xrotation Zrotation
			JOINT LeftAnkle
			{
				OFFSET 0.062000 0.000007 -43.299999
				CHANNELS 3 Yrotation Xrotation Zrotation
				End Site
				{
					OFFSET 0.000000 -13.151999 -6.231003
				}
			}
		}
	}
	JOINT RightHip
	{
		OFFSET -8.100000 0.000000 0.000000
		CHANNELS 3 Yrotation Xrotation Zrotation
		JOINT RightKnee
		{
			OFFSET 0.000000 0.000007 -43.200001
			CHANNELS 3 Yrotation Xrotation Zrotation
			JOINT RightAnkle
			{
				OFFSET -0.063000 0.000007 -43.299999
				CHANNELS 3 Yrotation Xrotation Zrotation
				End Site
				{
					OFFSET 0.000000 -13.151999 -6.231003
				}
			}
		}
	}
}
MOTION
Frames: 14
Frame Time: 0.320420
161.119995 -234.361984 40.798901 -2.006087 -8.698268 28.724979 -3.874344 15.143861 -1.561866 -8.794781 30.463446 -4.557854 -8.893460 -13.871475 -3.646949 73.684887 20.784370 -65.312994 16.456665 1.804645 -37.491670 -126.721893 -6.005977 23.492169 3.578094 -20.448808 -9.862350 3.578095 -20.448809 -9.862347 8.244977 -10.896537 -19.987574 -79.836196 22.301199 50.331435 -23.550543 14.674550 33.285335 144.439103 -9.146338 4.170107 -98.700004 -58.566249 35.454460 -54.756745 156.223297 -31.715406 8.647456 -18.972625 -71.723420 64.442985 -51.241332 -22.609572 35.821938 144.028964 10.919233 -46.806460 -33.676845 69.393540 
161.287003 -234.287994 40.598915 -1.514912 -9.180906 27.487632 -3.527998 15.030945 -1.340666 -7.973439 30.260118 -3.962833 -9.425739 -13.134781 -3.663543 67.136668 22.252143 -50.514228 28.227575 -0.260812 -44.778286 -125.154488 1.090771 27.354810 3.178710 -20.367354 -9.739158 3.178708 -20.367349 -9.739162 8.350991 -11.771906 -18.935183 -76.072994 32.376114 56.642226 -14.593900 12.023762 22.038922 161.034318 -31.112277 -4.055730 -98.682095 -58.523096 35.462544 -54.748143 156.212669 -31.697125 8.821807 -20.029187 -71.736889 64.442978 -51.241336 -22.609574 35.821935 144.028964 10.919239 -46.806463 -33.676839 69.393534 
161.192001 -231.037003 40.900822 -1.343550 -9.077251 28.376139 -3.365223 14.866286 -1.426635 -7.630748 29.922437 -4.075795 -9.364095 -12.685914 -2.917829 75.516368 29.987467 -46.208900 23.201606 -4.411733 -40.933897 -124.295373 3.215019 26.756050 3.148790 -20.909612 -9.831127 3.148791 -20.909615 -9.831128 7.737074 -9.914631 -18.208005 -66.351634 34.058769 64.317521 -10.897210 11.731320 21.977056 161.151675 -34.822097 -6.771359 -98.664186 -58.479916 35.470651 -54.739547 156.202055 -31.678858 8.989659 -21.086990 -71.744935 64.442978 -51.241329 -22.609582 35.821921 144.028964 10.919239 -46.806457 -33.676845 69.393534 
161.447006 -227.734985 40.694290 -1.235501 -8.465565 28.780740 -3.598793 14.985980 -1.797552 -8.256521 30.132462 -4.954054 -9.561127 -13.042506 -1.863918 81.322958 33.379018 -40.308942 26.796372 -0.508475 -45.296691 -122.856266 1.878265 25.366896 2.950574 -21.595124 -9.408424 2.950574 -21.595118 -9.408423 7.069906 -8.943820 -18.421678 -68.515998 29.384010 61.352898 -17.900275 11.978635 32.195203 140.890793 -24.309699 14.958319 -98.646278 -58.436763 35.478741 -54.730948 156.191427 -31.660580 9.150795 -22.145966 -71.747312 64.442978 -51.241332 -22.609581 35.821911 144.028964 10.919252 -46.806457 -33.676839 69.393534 
162.550003 -226.078949 41.336445 -0.330018 -8.115195 27.854153 -3.673149 14.998793 -1.491706 -8.324767 30.179843 -4.325269 -9.656375 -14.592711 -2.178758 74.303497 25.739406 -44.918606 29.904269 0.314581 -49.302747 -121.253261 0.448825 20.854818 3.570740 -22.670479 -9.482453 3.570742 -22.670486 -9.482456 8.313270 -10.718196 -19.910474 -69.684575 28.864444 54.161597 -27.216504 11.519130 36.580417 136.951536 -13.855869 16.986318 -98.628369 -58.393596 35.486845 -54.722342 156.180813 -31.642306 9.304961 -23.206083 -71.743767 64.442978 -51.241322 -22.609574 35.821907 144.028964 10.919248 -46.806467 -33.676849 69.393534 
161.557999 -224.535980 41.425369 0.805537 -6.312638 24.551660 -3.690949 14.977906 -1.620828 -8.399745 30.124587 -4.603451 -10.443920 -15.270252 -1.131757 74.388198 32.400870 -40.925568 33.204883 4.238057 -52.692587 -123.049696 -1.377759 22.325631 3.545158 -24.031923 -9.295217 3.545157 -24.031928 -9.295216 7.917268 -11.133220 -19.677990 -87.357218 16.267945 40.747396 -34.156318 11.079871 38.194121 125.550789 -17.928765 9.581081 -98.610460 -58.350443 35.494943 -54.713749 156.170199 -31.624035 9.451896 -24.267257 -71.734041 64.442978 -51.241326 -22.609579 35.821904 144.028964 10.919247 -46.806460 -33.676845 69.393534 
161.764999 -224.621979 41.818100 1.564614 -5.897792 24.037222 -3.917510 14.989144 -2.009436 -9.005484 30.106255 -5.505744 -11.035952 -16.788363 -0.129886 67.453657 27.177167 -45.205525 26.023007 4.545745 -47.183903 -121.475065 -6.940498 22.965779 4.288055 -23.797369 -9.913761 4.288053 -23.797368 -9.913765 7.120861 -10.959657 -18.645134 -88.190460 17.921250 35.091535 -53.048450 26.927720 57.322868 149.765640 -38.976809 20.619783 -98.592551 -58.307269 35.503043 -54.705140 156.159571 -31.605765 9.591325 -25.329437 -71.717847 64.442978 -51.241329 -22.609577 35.821887 144.028964 10.919249 -46.806460 -33.676849 69.393534 
164.134995 -224.920990 41.500092 0.357638 -5.249076 27.870216 -3.413632 14.918793 -2.575592 -8.087612 29.946032 -6.550342 -9.701517 -21.018879 -1.673503 70.493576 32.273607 -49.681321 4.450258 -9.252233 -15.273831 -107.913669 -29.596975 21.337361 4.075531 -23.688197 -9.287007 4.075532 -23.688209 -9.287007 8.360909 -12.736939 -17.279810 -79.139537 14.912799 44.442839 -46.441496 26.450145 71.894626 157.205738 -12.640076 57.193801 -98.574642 -58.264109 35.511134 -54.696544 156.148957 -31.587490 9.722953 -26.392560 -71.694884 64.442978 -51.241329 -22.609572 35.821887 144.028964 10.919245 -46.806460 -33.676849 69.393534 
165.682007 -225.683990 41.495735 -0.185850 -5.308964 29.356857 -2.630187 14.972309 -2.688475 -6.455736 30.095873 -6.562788 -6.607760 -19.910276 -6.141564 60.760980 30.972818 -51.644713 2.876957 -28.944569 -9.500291 -99.928994 -21.361799 9.298966 3.258913 -23.205112 -12.316203 3.258911 -23.205108 -12.316201 10.844685 -13.377523 -19.297036 -77.621507 14.318196 51.946468 -50.434031 25.423670 78.155976 157.401791 -24.804605 50.520782 -98.556734 -58.220942 35.519238 -54.687942 156.138329 -31.569213 9.846455 -27.456561 -71.664831 64.442978 -51.241326 -22.609577 35.821876 144.028964 10.919266 -46.806467 -33.676845 69.393534 
165.550995 -225.318970 41.202721 0.453568 -5.567035 29.283511 -1.790133 15.121829 -2.885691 -4.735930 30.442382 -6.742461 -5.318048 -18.543412 -8.307294 55.693212 29.428877 -57.160900 1.622878 -37.106768 -7.060607 -101.408768 -19.438513 10.603199 5.779682 -24.646080 -13.052181 5.779682 -24.646082 -13.052177 11.133717 -14.412367 -19.734998 -80.890135 17.515860 50.720360 -52.441731 19.708379 74.162344 154.210618 -17.248876 46.223555 -98.538825 -58.177789 35.527338 -54.679342 156.127715 -31.550939 9.961489 -28.521367 -71.627333 64.442978 -51.241326 -22.609577 35.821876 144.028964 10.919257 -46.806453 -33.676849 69.393540 
166.229996 -224.856979 41.203537 0.252295 -5.429740 29.900786 -1.987590 15.057103 -2.379778 -4.995183 30.322324 -5.713658 -5.374973 -18.129918 -7.821789 39.849571 40.782657 -67.896793 2.040354 -35.202214 -8.366552 -104.403485 -20.131851 9.468831 5.236685 -25.722255 -12.186359 5.236689 -25.722255 -12.186357 10.415668 -13.588136 -18.470343 -82.202665 17.968218 44.148809 -48.583477 17.121585 70.747407 153.314866 -12.179006 41.304756 -98.520916 -58.134622 35.535429 -54.670743 156.117087 -31.532665 10.067686 -29.586921 -71.582015 64.442985 -51.241326 -22.609571 35.821870 144.028964 10.919267 -46.806463 -33.676852 69.393534 
165.873993 -223.668976 40.431343 -0.037784 -5.165839 27.726528 -1.980758 15.227456 -2.423642 -5.012908 30.670654 -5.823249 -5.731221 -18.536502 -6.561825 37.180480 44.961400 -71.833011 2.800653 -40.299930 -7.933791 -102.199554 -19.394390 10.785000 4.388415 -25.756018 -11.385255 4.388412 -25.756020 -11.385256 8.221212 -11.824825 -16.196129 -80.526947 25.711527 58.068834 -12.498731 -25.209007 17.977019 129.155298 3.326154 6.843914 -98.503001 -58.091462 35.543526 -54.662134 156.106460 -31.514394 10.164653 -30.653134 -71.528473 64.442978 -51.241326 -22.609577 35.821866 144.028964 10.919257 -46.806470 -33.676845 69.393534 
165.044006 -222.092987 41.719269 1.595711 -3.034259 26.203934 -3.399618 15.523685 -1.731866 -7.877532 31.250936 -4.825402 -6.763816 -17.647544 -4.314787 71.860632 29.515279 -52.082033 5.483223 -36.935815 -12.085549 -101.906812 -22.268001 7.355667 4.455401 -26.228329 -11.948354 4.455402 -26.228331 -11.948354 4.751223 -11.286785 -9.707504 -57.354096 35.802465 75.132265 3.171096 -16.003719 3.060258 119.616256 3.422364 -2.810272 -98.485106 -58.048296 35.551620 -54.653538 156.095846 -31.496120 10.251959 -31.719935 -71.466277 64.442978 -51.241326 -22.609577 35.821863 144.028964 10.919265 -46.806460 -33.676845 69.393534 
165.811996 -222.148987 41.394081 2.778103 -3.206573 24.493861 -3.278218 15.301309 -2.250621 -7.750487 30.762229 -5.868947 -7.180545 -17.427827 -4.857226 85.827556 7.721188 -45.697357 10.649624 -48.986875 -14.249169 -94.752878 -9.003794 9.399728 4.580378 -26.301421 -13.767951 4.580379 -26.301428 -13.767951 6.654110 -13.849138 -14.441168 -66.025499 30.957569 65.571039 -3.531598 1.780061 10.372277 120.828109 1.289633 19.225955 -98.467190 -58.005136 35.559713 -54.644932 156.085231 -31.477852 10.329141 -32.787244 -71.394963 64.442978 -51.241329 -22.609577 35.821856 144.028964 10.919279 -46.806450 -33.676856 69.393534 
